<svg xmlns="http://www.w3.org/2000/svg" height="48" viewBox="0 -960 960 960" width="48">
	<path d="M145.087-142.348q-33.501 0-58.338-24.836-24.836-24.837-24.836-58.338v-508.956q0-33.734 24.836-58.737 24.837-25.003 58.338-25.003h669.826q33.734 0 58.737 25.003 25.002 25.003 25.002 58.737v508.956q0 33.501-25.002 58.338-25.003 24.836-58.737 24.836H145.087Zm0-83.174h669.826v-424.956H145.087v424.956ZM300-289.218 255.218-334l103-104-104-104L300-586.782 448.782-438 300-289.218Zm188.522 2.696v-63.956h223.956v63.956H488.522Z" style="fill:#FFFFFF;fill-opacity:1;fill-rule:evenodd;stroke:none" />
</svg>
