<svg xmlns="http://www.w3.org/2000/svg" height="48" viewBox="0 -960 960 960" width="48">
	<path d="M184.348-101.174q-33.501 0-58.338-24.836-24.836-24.837-24.836-58.338v-259.434h83.174v259.434h259.434v83.174H184.348Zm331.87 0v-83.174h259.434v-259.434h83.739v259.434q0 33.501-25.002 58.338-25.003 24.836-58.737 24.836H516.218ZM226.87-264.783l127.695-168.783L448-306.131l132.435-171.87L737.13-264.783H226.87ZM101.174-516.218v-259.434q0-33.734 24.836-58.737 24.837-25.002 58.338-25.002h259.434v83.739H184.348v259.434h-83.174Zm674.478 0v-259.434H516.218v-83.739h259.434q33.734 0 58.737 25.002 25.002 25.003 25.002 58.737v259.434h-83.739Zm-150.246-53.347q-25.163 0-40.502-15.107-15.339-15.106-15.339-40.269 0-25.163 15.107-40.502 15.106-15.339 40.269-15.339 25.163 0 40.502 15.106 15.339 15.107 15.339 40.27 0 25.163-15.106 40.502-15.107 15.339-40.27 15.339Z" style="fill:#FFFFFF;fill-opacity:1;fill-rule:evenodd;stroke:none"/>
</svg>
